<svg id="图层_1" data-name="图层 1" xmlns="http://www.w3.org/2000/svg" viewBox="0 0 200 200"><defs><style>.cls-1{opacity:0.56;}</style></defs><g class="cls-1"><path d="M166.51,168.92A99,99,0,0,0,193.74,100a99,99,0,0,0-27.23-68.87c-2.85-3-6.74-2.69-8.95-.24s-1.81,6.09.87,8.95C173.55,55.7,181.86,76.92,181.86,100s-8.31,44.33-23.43,60.16c-2.68,2.77-3.18,6.38-.87,8.88s6.1,2.83,8.95-.17Z"/><path d="M42.44,169.09c2.29-2.46,1.81-6.09-.87-8.87C26.36,144.36,18.19,123.15,18.19,100S26.36,55.7,41.57,39.87c2.68-2.86,3.18-6.37.87-8.95s-6.1-2.78-8.95.24A99,99,0,0,0,6.26,100a99,99,0,0,0,27.23,68.89C36.34,171.9,40.23,171.59,42.44,169.09Z"/><path d="M60.28,149.75c2.29-2.61,1.66-6-1.07-8.95A60.64,60.64,0,0,1,44.05,100,60.52,60.52,0,0,1,59.26,59.26c2.67-2.92,3.31-6.37,1.06-9s-6.38-2.68-9.19.4A72.23,72.23,0,0,0,32.26,100a72.15,72.15,0,0,0,18.87,49.33C53.87,152.45,57.91,152.52,60.28,149.75Z"/><path d="M148.87,149.36A72.1,72.1,0,0,0,167.74,100a72.23,72.23,0,0,0-18.87-49.4c-2.77-3.09-6.81-3.09-9.18-.4s-1.66,6.11.95,9A60.25,60.25,0,0,1,156,100a60.29,60.29,0,0,1-15.28,40.76c-2.61,2.94-3.32,6.38-.95,9S146.13,152.44,148.87,149.36Z"/><path d="M77.5,129.09c2.37-2.68,1.34-5.86-1-9.11a31.76,31.76,0,0,1-6.49-20,32.21,32.21,0,0,1,6.49-20c2.3-3.19,3.33-6.37,1-9a6.05,6.05,0,0,0-9.35.55,45.6,45.6,0,0,0,0,56.93,6,6,0,0,0,8.37,1.49A6.64,6.64,0,0,0,77.5,129.09Z"/><path d="M131.87,128.46a45.58,45.58,0,0,0,0-56.93,6,6,0,0,0-8.45-1.34,5.66,5.66,0,0,0-.9.79c-2.37,2.69-1.42,5.85,1,9A32.19,32.19,0,0,1,130,100,31.73,31.73,0,0,1,123.46,120c-2.38,3.25-3.33,6.37-1,9.11a6,6,0,0,0,8.5.38A5.89,5.89,0,0,0,131.87,128.46Z"/><path d="M100,114A14.67,14.67,0,1,0,85.44,99.2v.07A14.88,14.88,0,0,0,100,114Z"/></g></svg>