<svg id="图层_1" data-name="图层 1" xmlns="http://www.w3.org/2000/svg" viewBox="0 0 200 200"><defs><style>.cls-1{isolation:isolate;opacity:0.56;}</style></defs><g class="cls-1"><path d="M80.44,92.5C88.23,92.5,92.8,88,92.8,79.15V29.5c0-8.87-4.62-13.36-13.67-13.36H29.35c-9.1,0-13.66,4.44-13.66,13.37V79.15c0,8.87,4.56,13.35,13.66,13.35H80.44Z"/><path d="M172,92.58c7.79,0,12.35-4.49,12.35-13.36V29.57c0-8.87-4.61-13.36-13.66-13.36H120.87q-13.65,0-13.67,13.37V79.22c0,8.87,4.57,13.36,13.67,13.36H172Z"/><path d="M80.7,183.86c7.79,0,12.36-4.49,12.36-13.36V120.85c0-8.87-4.62-13.35-13.67-13.35H29.62c-9.1,0-13.67,4.44-13.67,13.37v49.64c0,8.86,4.57,13.35,13.67,13.35Z"/><path d="M172,183.86c7.79,0,12.35-4.49,12.35-13.36V120.85c0-8.87-4.61-13.35-13.66-13.35H120.87c-9.1,0-13.67,4.44-13.67,13.37v49.64c0,8.86,4.57,13.35,13.67,13.35H172Z"/></g></svg>