<svg width="24" height="24" xmlns="http://www.w3.org/2000/svg" class="web-navigation__playlist-icon" aria-hidden="true">
 <g>
  <title>Layer 1</title>
  <g>

   <path fill="#d60017" d="m15.477,4.437c-0.044,-0.61 -0.396,-0.937 -1.07,-0.937l-4.976,0c-0.675,0 -1.027,0.327 -1.07,0.937l7.115,0l0.001,0zm1.24,2.013c-0.11,-0.654 -0.425,-1.025 -1.159,-1.025l-7.336,0c-0.741,0 -1.057,0.37 -1.167,1.025l9.662,0zm-0.3,14.05c1.313,0 2.083,-0.756 2.083,-2.252l0,-8.37c0,-1.496 -0.778,-2.252 -2.304,-2.252l-8.392,0c-1.534,0 -2.304,0.749 -2.304,2.254l0,8.369c0,1.495 0.77,2.251 2.304,2.251l8.612,0l0.001,0zm-0.023,-1.17l-8.576,0c-0.733,0 -1.137,-0.392 -1.137,-1.148l0,-8.245c0,-0.756 0.404,-1.14 1.137,-1.14l8.356,0c0.727,0 1.145,0.384 1.145,1.14l0,8.245c0,0.756 -0.418,1.148 -0.925,1.148z" class="cls-1" data-name="svg 3" id="svg_5"/>
  </g>
 </g>

</svg>