<svg width="24" height="24" xmlns="http://www.w3.org/2000/svg" class="web-navigation__playlist-icon" aria-hidden="true">
 <g>
  <title>Layer 1</title>
  <g>

   <path fill="#d60017" d="m18.27085,9.58475c1.289,-1.282 1.34,-2.908 0.102,-4.139c-1.23,-1.216 -2.85,-1.186 -4.138,0.103l4.036,4.035l0,0.001zm-6.08,9.858a0.66,0.66 0 0 0 0.667,-0.667l0,-4.328l-0.051,-1.048l2.234,-2.072c0.842,0.11 1.728,-0.235 2.49,-1.004l-4.03,-4.035c-0.776,0.761 -1.098,1.633 -0.988,2.475l-6.805,7.332c-0.278,0.3 -0.322,0.717 0.022,1.062l-0.936,1.207a0.31,0.31 0 0 0 0.037,0.418l0.212,0.22a0.309,0.309 0 0 0 0.425,0.029l1.208,-0.945c0.33,0.344 0.755,0.3 1.048,0.022l3.8,-3.516l0,4.182a0.66,0.66 0 0 0 0.667,0.667l0,0.001zm-5.053,-2.073l-0.674,-0.674l6.453,-6.84c0.124,0.205 0.278,0.402 0.461,0.593c0.183,0.183 0.373,0.344 0.571,0.476l-6.811,6.445z" class="cls-1" data-name="svg 1" id="svg_3"/>
  </g>
 </g>

</svg>