<svg id="图层_1" data-name="图层 1" xmlns="http://www.w3.org/2000/svg" viewBox="0 0 24 24"><defs><style>.cls-1,.cls-2{fill:#d60017;}.cls-1{fill-opacity:0;}</style></defs><rect class="cls-1" x="2.91" y="2.9" width="18.18" height="18.19"/><path class="cls-2" d="M12,21.09a8.81,8.81,0,0,0,3.51-.71,9.35,9.35,0,0,0,4.87-4.87A8.67,8.67,0,0,0,21.09,12a8.69,8.69,0,0,0-.71-3.52,9.35,9.35,0,0,0-4.87-4.87,9.06,9.06,0,0,0-7,0A9.28,9.28,0,0,0,3.62,8.48a9.06,9.06,0,0,0,0,7,9.35,9.35,0,0,0,4.87,4.87A8.81,8.81,0,0,0,12,21.09Zm0-1.18a7.77,7.77,0,0,1-3.08-.61A7.94,7.94,0,0,1,4.7,15.07,7.68,7.68,0,0,1,4.09,12,7.73,7.73,0,0,1,4.7,8.92,7.94,7.94,0,0,1,6.4,6.39a8,8,0,0,1,8.67-1.71,8,8,0,0,1,4.24,4.24A7.73,7.73,0,0,1,19.92,12a7.68,7.68,0,0,1-.61,3.07,7.94,7.94,0,0,1-4.22,4.23A7.78,7.78,0,0,1,12,19.91ZM12,7.43a.53.53,0,0,0-.39.15.5.5,0,0,0-.15.38v5.26l0,1.67-1-1.12-1.3-1.31a.54.54,0,0,0-.37-.16.52.52,0,0,0-.37.87l3.13,3.12a.53.53,0,0,0,.4.19.56.56,0,0,0,.4-.19l3.13-3.12a.51.51,0,0,0,.14-.37.47.47,0,0,0-.15-.35.5.5,0,0,0-.37-.15.51.51,0,0,0-.37.16L13.5,13.77l-1,1.13,0-1.68V8a.54.54,0,0,0-.14-.38A.52.52,0,0,0,12,7.43Z"/></svg>