<svg id="图层_1" data-name="图层 1" xmlns="http://www.w3.org/2000/svg" viewBox="0 0 185.75 210.38"><defs><style>.cls-1,.cls-2{fill:#d60017;}.cls-1{fill-opacity:0;}</style></defs><rect class="cls-1" x="32.65" y="36.98" width="120.45" height="136.41"/><path class="cls-2" d="M40.92,173.39a10.81,10.81,0,0,0,3.85-.69,22.61,22.61,0,0,0,3.93-2l96.86-56.33a25.64,25.64,0,0,0,5.79-4.38,7.35,7.35,0,0,0,0-9.52,23.51,23.51,0,0,0-5.79-4.34L48.7,39.74a26.92,26.92,0,0,0-3.93-1.91,10.81,10.81,0,0,0-3.85-.69,7.46,7.46,0,0,0-6,2.68A10.8,10.8,0,0,0,32.65,47V163.42a11,11,0,0,0,2.27,7.26A7.42,7.42,0,0,0,40.92,173.39Z"/></svg>