<svg id="图层_1" data-name="图层 1" xmlns="http://www.w3.org/2000/svg" viewBox="0 0 24 24"><defs><style>.cls-1{fill:#d60017;}</style></defs><path id="svg_1" data-name="svg 1" class="cls-1" d="M13.08,19.71A2.74,2.74,0,0,0,15.78,17c0-.06,0-.11,0-.16v-6.7c0-.39.07-.47.41-.54l3.35-.74a.46.46,0,0,0,.4-.48V5.58A.56.56,0,0,0,19.4,5a.38.38,0,0,0-.15,0l-3.77.82c-.47.11-.72.36-.72.77v8.15a.54.54,0,0,1-.42.65h0l-1.17.24C11.69,16,11,16.7,11,17.81a1.92,1.92,0,0,0,1.91,1.91Zm-1-11a.51.51,0,0,0,.49-.5.47.47,0,0,0-.47-.49H5.5a.48.48,0,0,0-.5.46v0H5a.5.5,0,0,0,.5.5Zm0,2.6a.49.49,0,0,0,.49-.49h0a.49.49,0,0,0-.49-.49H5.5a.5.5,0,0,0-.5.48H5a.49.49,0,0,0,.48.5h6.6Zm0,2.61a.5.5,0,0,0,0-1H5.5a.51.51,0,0,0-.5.49H5a.49.49,0,0,0,.48.5h6.6Z"/></svg>