<svg id="图层_1" data-name="图层 1" xmlns="http://www.w3.org/2000/svg" viewBox="0 0 185.75 210.38"><defs><style>.cls-1,.cls-2{fill:#d60017;}.cls-1{fill-opacity:0;}</style></defs><rect class="cls-1" x="10.5" y="39.25" width="165.92" height="131.87"/><path class="cls-2" d="M10.5,143A4.66,4.66,0,0,0,12,146.68a5.8,5.8,0,0,0,4,1.4H33q8.88,0,14.87-2.94T60.43,134.6L104.34,83a41.74,41.74,0,0,1,6.44-6.29,21.38,21.38,0,0,1,6.48-3.43,25,25,0,0,1,7.49-1.05h14.54V89.71a4,4,0,0,0,1.05,2.94,4.08,4.08,0,0,0,3,1,4.5,4.5,0,0,0,1.74-.34,7.71,7.71,0,0,0,1.65-.94l28-22.59a4.17,4.17,0,0,0,1.66-3.32,4.38,4.38,0,0,0-1.66-3.39l-28-22.59a6.73,6.73,0,0,0-1.65-.9,5.09,5.09,0,0,0-1.74-.3,4.15,4.15,0,0,0-3,1,3.86,3.86,0,0,0-1.05,2.9V62H124.68q-9,0-15,2.93T97.26,75.48L53.43,127.07c-3.37,4-6.55,6.76-9.57,8.39a21.36,21.36,0,0,1-10.39,2.45H16.07a5.72,5.72,0,0,0-4,1.43A4.82,4.82,0,0,0,10.5,143Zm0-75.91A4.82,4.82,0,0,0,12,70.81a5.72,5.72,0,0,0,4,1.43h17.4a21.36,21.36,0,0,1,10.39,2.45c3,1.63,6.2,4.43,9.57,8.39l43.83,51.59q6.48,7.61,12.47,10.55t15,2.93h14.61v19.06a3.86,3.86,0,0,0,1.05,2.9,4.15,4.15,0,0,0,3,1,5.09,5.09,0,0,0,1.74-.3,6.73,6.73,0,0,0,1.65-.9l28-22.52a4.29,4.29,0,0,0,0-6.78l-28-22.59a7.14,7.14,0,0,0-1.65-.91,5.09,5.09,0,0,0-1.74-.3,4.16,4.16,0,0,0-3,1,3.85,3.85,0,0,0-1.05,2.9v17.17H124.75A22.81,22.81,0,0,1,114,135.5q-4.59-2.42-9.64-8.43L60.43,75.48Q53.88,67.88,47.89,65T33,62.07h-17a5.79,5.79,0,0,0-4,1.39A4.69,4.69,0,0,0,10.5,67.12Z"/></svg>