<svg width="24" height="24" xmlns="http://www.w3.org/2000/svg" class="web-navigation__playlist-icon" aria-hidden="true">
 <g>
  <title>Layer 1</title>
  <g>

   <path fill="#d60017" d="m9.61195,19.356c1.077,0 2.688,-0.79 2.688,-2.922l0,-6.702c0,-0.388 0.074,-0.469 0.418,-0.542l3.347,-0.732a0.48,0.48 0 0 0 0.403,-0.484l0,-2.754c0,-0.388 -0.315,-0.637 -0.689,-0.563l-3.764,0.82c-0.47,0.102 -0.725,0.359 -0.725,0.769l0.014,8.144c0.037,0.36 -0.132,0.594 -0.454,0.66l-1.164,0.241c-1.465,0.308 -2.154,1.055 -2.154,2.16c0,1.122 0.864,1.905 2.08,1.905z" class="cls-1" data-name="svg 3" id="svg_7"/>
  </g>
 </g>

</svg>