<?xml version="1.0" encoding="utf-8"?>
<!-- Generator: Adobe Illustrator 26.3.1, SVG Export Plug-In . SVG Version: 6.00 Build 0)  -->
<svg version="1.1" id="图层_1" xmlns="http://www.w3.org/2000/svg" xmlns:xlink="http://www.w3.org/1999/xlink" x="0px" y="0px"
	 viewBox="0 0 335 191.4" style="enable-background:new 0 0 335 191.4;" xml:space="preserve">
<style type="text/css">
	.st0{fill:#FFFFFF;fill-opacity:0;}
	.st1{fill:#FFFFFF;}
</style>
<g>
	<rect class="st0" width="335" height="191.4"/>
	<path class="st1" d="M151.8,191.4c4.2,0,8-1.6,11.2-4.8c3.2-3.2,4.8-7.9,4.8-14.2v-153c0-6.2-1.6-11-4.8-14.2
		c-3.2-3.2-6.9-4.8-11.2-4.8c-2.2,0-4.4,0.4-6.5,1.1s-4.2,1.8-6.4,3L10.5,80.1c-3.7,2.1-6.3,4.4-8,7S0,92.6,0,95.9
		c0,3.2,0.9,6.1,2.6,8.7c1.7,2.6,4.4,5,7.9,7.1l128.4,75.6c2.2,1.2,4.3,2.2,6.4,3S149.5,191.4,151.8,191.4z M148,174
		c-0.5,0-1.1-0.1-1.8-0.3c-0.7-0.2-1.4-0.6-2.2-1.1L21.5,100.2c-2.2-1.2-3.4-2.7-3.4-4.4c0-1.6,1.1-3,3.4-4.4L144,19.1
		c0.9-0.5,1.7-0.9,2.3-1.1c0.6-0.2,1.2-0.3,1.7-0.3c1.1,0,2.1,0.4,3.1,1.2c1,0.8,1.4,2.1,1.4,4.1v145.8c0,1.9-0.5,3.3-1.4,4.1
		C150.1,173.6,149.1,174,148,174z M319,191.4c4.2,0,8-1.6,11.2-4.8c3.2-3.2,4.8-7.9,4.8-14.2v-153c0-6.2-1.6-11-4.8-14.2
		C327,2,323.2,0.4,319,0.4c-2.3,0-4.5,0.4-6.6,1.1c-2,0.8-4.1,1.8-6.3,3L177.6,80.1c-3.6,2.1-6.2,4.4-7.9,7
		c-1.7,2.6-2.6,5.5-2.6,8.8c0,3.2,0.9,6.1,2.6,8.7c1.8,2.6,4.4,5,7.9,7.1l128.5,75.6c2.1,1.2,4.2,2.2,6.2,3S316.7,191.4,319,191.4z
		 M315.2,174c-0.6,0-1.2-0.1-1.8-0.3c-0.6-0.2-1.4-0.6-2.3-1.1l-122.5-72.4c-2.2-1.2-3.2-2.7-3.2-4.4c0-1.6,1.1-3,3.2-4.4
		l122.5-72.4c0.9-0.5,1.7-0.9,2.3-1.1c0.6-0.2,1.2-0.3,1.8-0.3c1,0,2,0.4,2.9,1.2c1,0.8,1.4,2.1,1.4,4.1v145.8
		c0,1.9-0.5,3.3-1.4,4.1C317.2,173.6,316.2,174,315.2,174z"/>
</g>
</svg>
