<?xml version="1.0" encoding="UTF-8"?>
<!--Generator: Apple Native CoreSVG 175-->
<!DOCTYPE svg
PUBLIC "-//W3C//DTD SVG 1.1//EN"
       "http://www.w3.org/Graphics/SVG/1.1/DTD/svg11.dtd">
<svg version="1.1" xmlns="http://www.w3.org/2000/svg" xmlns:xlink="http://www.w3.org/1999/xlink" width="335" height="191.375">
 <g>
  <rect height="191.375" opacity="0" width="335" x="0" y="0"/>
  <path d="M16 191.375Q19.375 191.375 22.5625 190.25Q25.75 189.125 28.875 187.25L157.25 111.625Q162.625 108.5 165.25 104.562Q167.875 100.625 167.875 95.875Q167.875 91 165.312 87.125Q162.75 83.25 157.25 80.125L28.875 4.5Q25.625 2.625 22.5 1.5Q19.375 0.375 16 0.375Q9.625 0.375 4.8125 5.1875Q0 10 0 19.375L0 172.375Q0 181.75 4.8125 186.562Q9.625 191.375 16 191.375ZM19.75 174Q18.25 174 16.8125 172.812Q15.375 171.625 15.375 168.75L15.375 23Q15.375 20.125 16.8125 18.9375Q18.25 17.75 19.75 17.75Q20.5 17.75 21.5 18.0625Q22.5 18.375 23.75 19.125L146.25 91.5Q149.625 93.5 149.625 95.875Q149.625 98.375 146.25 100.25L23.75 172.625Q22.5 173.375 21.5 173.688Q20.5 174 19.75 174ZM183.125 191.375Q186.5 191.375 189.688 190.25Q192.875 189.125 196 187.25L324.375 111.625Q329.75 108.5 332.375 104.562Q335 100.625 335 95.875Q335 91 332.438 87.125Q329.875 83.25 324.375 80.125L196 4.5Q192.75 2.625 189.625 1.5Q186.5 0.375 183.125 0.375Q176.75 0.375 171.938 5.1875Q167.125 10 167.125 19.375L167.125 172.375Q167.125 181.75 171.938 186.562Q176.75 191.375 183.125 191.375ZM186.875 174Q185.375 174 183.938 172.812Q182.5 171.625 182.5 168.75L182.5 23Q182.5 20.125 183.938 18.9375Q185.375 17.75 186.875 17.75Q187.625 17.75 188.625 18.0625Q189.625 18.375 190.875 19.125L313.375 91.5Q316.75 93.5 316.75 95.875Q316.75 98.375 313.375 100.25L190.875 172.625Q189.625 173.375 188.625 173.688Q187.625 174 186.875 174Z" fill="#ff3b30"/>
 </g>
</svg>
