<?xml version="1.0" encoding="utf-8"?>
<!-- Generator: Adobe Illustrator 26.3.1, SVG Export Plug-In . SVG Version: 6.00 Build 0)  -->
<svg version="1.1" id="图层_1" xmlns="http://www.w3.org/2000/svg" xmlns:xlink="http://www.w3.org/1999/xlink" x="0px" y="0px"
	 viewBox="0 0 335 191.4" style="enable-background:new 0 0 335 191.4;" xml:space="preserve">
<style type="text/css">
	.st0{fill:#FFFFFF;fill-opacity:0;}
	.st1{fill:#FFFFFF;}
</style>
<g>
	<rect class="st0" width="335" height="191.4"/>
	<path class="st1" d="M16,191.4c2.2,0,4.4-0.4,6.6-1.1s4.2-1.8,6.3-3l128.4-75.6c3.6-2.1,6.2-4.4,8-7.1c1.8-2.6,2.6-5.5,2.6-8.7
		c0-3.2-0.9-6.2-2.6-8.8c-1.7-2.6-4.4-4.9-8.1-7L28.9,4.5c-2.2-1.2-4.3-2.2-6.4-3S18.2,0.4,16,0.4C11.8,0.4,8,2,4.8,5.2
		S0,13.1,0,19.4v153c0,6.2,1.6,11,4.8,14.2C8,189.8,11.8,191.4,16,191.4z M183.1,191.4c2.2,0,4.4-0.4,6.6-1.1c2.1-0.8,4.2-1.8,6.3-3
		l128.4-75.6c3.6-2.1,6.2-4.4,8-7.1c1.8-2.6,2.6-5.5,2.6-8.7c0-3.2-0.9-6.2-2.6-8.8c-1.7-2.6-4.4-4.9-8.1-7L196,4.5
		c-2.2-1.2-4.3-2.2-6.4-3s-4.2-1.1-6.5-1.1c-4.2,0-8,1.6-11.2,4.8c-3.2,3.2-4.8,7.9-4.8,14.2v153c0,6.2,1.6,11,4.8,14.2
		C175.1,189.8,178.9,191.4,183.1,191.4z"/>
</g>
</svg>
