<?xml version="1.0" encoding="utf-8"?>
<!-- Generator: Adobe Illustrator 26.3.1, SVG Export Plug-In . SVG Version: 6.00 Build 0)  -->
<svg version="1.1" id="图层_1" xmlns="http://www.w3.org/2000/svg" xmlns:xlink="http://www.w3.org/1999/xlink" x="0px" y="0px"
	 viewBox="0 0 495.2 358.8" style="enable-background:new 0 0 495.2 358.8;" xml:space="preserve">
<style type="text/css">
	.st0{fill:#FFFFFF;}
</style>
<g>
	<path class="st0" d="M29.8,59.8c8.2,0,15.2-2.9,21-8.6s8.8-12.7,8.8-20.9c0-8.3-2.9-15.4-8.8-21.2s-12.8-8.8-21-8.8S14.6,3.2,8.8,9
		S0,21.9,0,30.2c0,8.2,2.9,15.1,8.8,20.9S21.6,59.8,29.8,59.8z M29.8,209.2c8.2,0,15.2-2.9,21-8.8s8.8-12.8,8.8-21s-2.9-15.2-8.8-21
		s-12.8-8.8-21-8.8s-15.2,2.9-21,8.8S0,171.3,0,179.5s2.9,15.2,8.8,21S21.6,209.2,29.8,209.2z M29.8,358.8c8.2,0,15.2-2.9,21-8.8
		s8.8-12.8,8.8-21c0-8.3-2.9-15.4-8.8-21.1s-12.8-8.6-21-8.6s-15.2,2.9-21,8.6S0,320.7,0,329c0,8.2,2.9,15.2,8.8,21
		S21.6,358.8,29.8,358.8z"/>
</g>
<path class="st0" d="M470.6,54.6H142c-13.6,0-24.6-11-24.6-24.6v0c0-13.6,11-24.6,24.6-24.6h328.6c13.6,0,24.6,11,24.6,24.6v0
	C495.2,43.6,484.2,54.6,470.6,54.6z"/>
<path class="st0" d="M470.6,204H142c-13.6,0-24.6-11-24.6-24.6v0c0-13.6,11-24.6,24.6-24.6h328.6c13.6,0,24.6,11,24.6,24.6v0
	C495.2,193,484.2,204,470.6,204z"/>
<path class="st0" d="M470.6,353.4H142c-13.6,0-24.6-11-24.6-24.6v0c0-13.6,11-24.6,24.6-24.6h328.6c13.6,0,24.6,11,24.6,24.6v0
	C495.2,342.3,484.2,353.4,470.6,353.4z"/>
</svg>
