<?xml version="1.0" encoding="UTF-8"?>
<!--Generator: Apple Native CoreSVG 175-->
<!DOCTYPE svg
PUBLIC "-//W3C//DTD SVG 1.1//EN"
       "http://www.w3.org/Graphics/SVG/1.1/DTD/svg11.dtd">
<svg version="1.1" xmlns="http://www.w3.org/2000/svg" xmlns:xlink="http://www.w3.org/1999/xlink" width="98.5" height="201.125">
 <g>
  <rect height="201.125" opacity="0" width="98.5" x="0" y="0"/>
  <path d="M8.125 201.125Q11.5 201.125 13.875 198.812Q16.25 196.5 16.25 193.25L16.25 8.125Q16.25 4.75 13.875 2.4375Q11.5 0.125 8.125 0.125Q4.75 0.125 2.375 2.4375Q0 4.75 0 8.125L0 193.25Q0 196.5 2.375 198.812Q4.75 201.125 8.125 201.125ZM90.25 201.125Q93.75 201.125 96.125 198.812Q98.5 196.5 98.5 193.25L98.5 8.125Q98.5 4.75 96.125 2.4375Q93.75 0.125 90.25 0.125Q87 0.125 84.625 2.4375Q82.25 4.75 82.25 8.125L82.25 193.25Q82.25 196.5 84.625 198.812Q87 201.125 90.25 201.125Z" fill="#ff3b30"/>
 </g>
</svg>
