<?xml version="1.0" encoding="utf-8"?>
<!-- Generator: Adobe Illustrator 26.3.1, SVG Export Plug-In . SVG Version: 6.00 Build 0)  -->
<svg version="1.1" id="图层_1" xmlns="http://www.w3.org/2000/svg" xmlns:xlink="http://www.w3.org/1999/xlink" x="0px" y="0px"
	 viewBox="0 0 143.9 199.1" style="enable-background:new 0 0 143.9 199.1;" xml:space="preserve">
<style type="text/css">
	.st0{fill:#FFFFFF;fill-opacity:0;}
	.st1{fill:#FFFFFF;}
</style>
<g>
	<rect class="st0" width="143.9" height="199.1"/>
	<path class="st1" d="M14.8,199h27.8c4.9,0,8.6-1.2,11.1-3.7c2.5-2.5,3.7-6.1,3.7-11.1V14.8c0-5.1-1.2-8.8-3.7-11.2S47.4,0,42.5,0
		H14.8C9.8,0,6,1.2,3.6,3.7S0,9.8,0,14.8v169.5c0,4.9,1.2,8.6,3.6,11.1C6,197.8,9.8,199,14.8,199z M101.6,199h27.5
		c5,0,8.7-1.2,11.1-3.7c2.4-2.5,3.6-6.1,3.6-11.1V14.8c0-5.1-1.2-8.8-3.6-11.2S134.1,0,129.1,0h-27.5c-5.1,0-8.9,1.2-11.3,3.7
		s-3.7,6.1-3.7,11.1v169.5c0,4.9,1.2,8.6,3.7,11.1C92.8,197.8,96.5,199,101.6,199z"/>
</g>
</svg>
