<?xml version="1.0" encoding="UTF-8"?>
<!--Generator: Apple Native CoreSVG 175-->
<!DOCTYPE svg
PUBLIC "-//W3C//DTD SVG 1.1//EN"
       "http://www.w3.org/Graphics/SVG/1.1/DTD/svg11.dtd">
<svg version="1.1" xmlns="http://www.w3.org/2000/svg" xmlns:xlink="http://www.w3.org/1999/xlink" width="185.75" height="210.375">
 <g>
  <rect height="210.375" opacity="0" width="185.75" x="0" y="0"/>
  <path d="M12.75 210.375Q15.875 210.375 18.6875 209.312Q21.5 208.25 24.75 206.25L174.125 119.375Q180.375 115.625 183.062 112.625Q185.75 109.625 185.75 105.25Q185.75 101 183.062 97.9375Q180.375 94.875 174.125 91.25L24.75 4.25Q21.5 2.375 18.6875 1.3125Q15.875 0.25 12.75 0.25Q7 0.25 3.5 4.375Q0 8.5 0 15.5L0 195Q0 202 3.5 206.188Q7 210.375 12.75 210.375ZM17.25 192.25Q15.5 192.25 15.5 190L15.5 20.5Q15.5 18.25 17.25 18.25Q18.125 18.25 19.5 19.125L164 103Q164.625 103.375 165.312 103.938Q166 104.5 166 105.25Q166 106 165.312 106.562Q164.625 107.125 164 107.5L19.5 191.5Q18.125 192.25 17.25 192.25Z" fill="#ff3b30"/>
 </g>
</svg>
