<?xml version="1.0" encoding="utf-8"?>
<!-- Generator: Adobe Illustrator 26.3.1, SVG Export Plug-In . SVG Version: 6.00 Build 0)  -->
<svg version="1.1" id="图层_1" xmlns="http://www.w3.org/2000/svg" xmlns:xlink="http://www.w3.org/1999/xlink" x="0px" y="0px"
	 viewBox="0 0 185.8 210.4" style="enable-background:new 0 0 185.8 210.4;" xml:space="preserve">
<style type="text/css">
	.st0{fill:#FFFFFF;fill-opacity:0;}
	.st1{fill:#FFFFFF;}
</style>
<g>
	<rect y="0.1" class="st0" width="185.8" height="210.4"/>
	<path class="st1" d="M12.8,210.5c2.1,0,4.1-0.4,5.9-1.1c1.9-0.7,3.9-1.7,6.1-3.1l149.4-86.9c4.2-2.5,7.1-4.8,8.9-6.8
		c1.8-2,2.7-4.5,2.7-7.4c0-2.8-0.9-5.3-2.7-7.3c-1.8-2-4.8-4.3-8.9-6.7L24.8,4.4c-2.2-1.2-4.2-2.2-6.1-2.9s-3.9-1.1-5.9-1.1
		c-3.8,0-6.9,1.4-9.2,4.1S0,11,0,15.6v179.5c0,4.7,1.2,8.4,3.5,11.2C5.8,209.1,8.9,210.5,12.8,210.5z"/>
</g>
</svg>
